<svg width="32" height="32" viewBox="0 0 32 32" fill="none" xmlns="http://www.w3.org/2000/svg">
<rect width="32" height="31.0303" fill="white"/>
<path d="M1.95455 24.9697V7.51518H8.94318C10.2273 7.51518 11.2983 7.70552 12.1562 8.0862C13.0142 8.46689 13.6591 8.99529 14.0909 9.67143C14.5227 10.3419 14.7386 11.1146 14.7386 11.9896C14.7386 12.6714 14.6023 13.2709 14.3295 13.7879C14.0568 14.2993 13.6818 14.7197 13.2045 15.0493C12.733 15.3731 12.1932 15.6032 11.5852 15.7396V15.9101C12.25 15.9385 12.8722 16.126 13.4517 16.4726C14.0369 16.8192 14.5114 17.305 14.875 17.93C15.2386 18.5493 15.4205 19.2879 15.4205 20.1459C15.4205 21.072 15.1903 21.8987 14.7301 22.626C14.2756 23.3476 13.6023 23.9186 12.7102 24.339C11.8182 24.7595 10.7188 24.9697 9.41193 24.9697H1.95455ZM5.64489 21.9527H8.65341C9.68182 21.9527 10.4318 21.7567 10.9034 21.3646C11.375 20.9669 11.6108 20.4385 11.6108 19.7794C11.6108 19.2964 11.4943 18.8703 11.2614 18.501C11.0284 18.1317 10.696 17.8419 10.2642 17.6317C9.83807 17.4214 9.32955 17.3163 8.73864 17.3163H5.64489V21.9527ZM5.64489 14.8192H8.38068C8.88636 14.8192 9.33523 14.7311 9.72727 14.555C10.125 14.3731 10.4375 14.1175 10.6648 13.7879C10.8977 13.4584 11.0142 13.0635 11.0142 12.6032C11.0142 11.9726 10.7898 11.464 10.3409 11.0777C9.89773 10.6913 9.26705 10.4981 8.44886 10.4981H5.64489V14.8192ZM17.8217 24.9697V7.51518H21.4524V14.0777H21.5632C21.7223 13.7254 21.9524 13.3675 22.2536 13.0038C22.5604 12.6345 22.9581 12.3277 23.4467 12.0834C23.9411 11.8334 24.5547 11.7084 25.2876 11.7084C26.2422 11.7084 27.1229 11.9584 27.9297 12.4584C28.7365 12.9527 29.3814 13.6998 29.8643 14.6998C30.3473 15.6942 30.5888 16.9413 30.5888 18.4413C30.5888 19.9015 30.353 21.1345 29.8814 22.1402C29.4155 23.1402 28.7791 23.8987 27.9723 24.4157C27.1712 24.9271 26.2734 25.1828 25.2791 25.1828C24.5746 25.1828 23.9751 25.0663 23.4808 24.8334C22.9922 24.6004 22.5916 24.3078 22.2791 23.9555C21.9666 23.5976 21.728 23.2368 21.5632 22.8731H21.4013V24.9697H17.8217ZM21.3757 18.4243C21.3757 19.2027 21.4837 19.8817 21.6996 20.4612C21.9155 21.0407 22.228 21.4925 22.6371 21.8163C23.0462 22.1345 23.5433 22.2936 24.1286 22.2936C24.7195 22.2936 25.2195 22.1317 25.6286 21.8078C26.0376 21.4782 26.3473 21.0237 26.5575 20.4442C26.7734 19.8589 26.8814 19.1856 26.8814 18.4243C26.8814 17.6686 26.7763 17.0038 26.5661 16.43C26.3558 15.8561 26.0462 15.4072 25.6371 15.0834C25.228 14.7595 24.7251 14.5976 24.1286 14.5976C23.5376 14.5976 23.0376 14.7538 22.6286 15.0663C22.2251 15.3788 21.9155 15.822 21.6996 16.3959C21.4837 16.9697 21.3757 17.6459 21.3757 18.4243Z" fill="black"/>
</svg>
